<?xml version="1.0" encoding="UTF-8" standalone="no"?>
<!-- Generator: Adobe Illustrator 17.0.0, SVG Export Plug-In . SVG Version: 6.00 Build 0)  -->

<svg
   version="1.1"
   id="Warstwa_1"
   x="0px"
   y="0px"
   width="217.064"
   height="217.065"
   viewBox="0 0 217.064 217.065"
   enable-background="new 0 0 800 217.065"
   xml:space="preserve"
   xmlns="http://www.w3.org/2000/svg"
   xmlns:svg="http://www.w3.org/2000/svg"><defs
   id="defs49" />
<g
   id="g16">
	<linearGradient
   id="SVGID_1_"
   gradientUnits="userSpaceOnUse"
   x1="-8.4727573e-05"
   y1="108.5326"
   x2="217.0649"
   y2="108.5326">
		<stop
   offset="0"
   style="stop-color:#00BBAF"
   id="stop9" />
		<stop
   offset="1"
   style="stop-color:#00EDA5"
   id="stop11" />
	</linearGradient>
	<path
   fill="url(#SVGID_1_)"
   d="m 113.283,106.41 -18.37,67.261 H 51.818 L 71.949,99.957 C 81.15,66.512 104.748,48.881 130.755,48.881 h 68.436 C 179.778,19.441 146.433,0 108.532,0 48.592,0 0,48.592 0,108.532 c 0,59.94 48.592,108.533 108.532,108.533 44.27,0 82.323,-26.52 99.208,-64.527 h -87.719 l 8.753,-32.239 h 87.645 c 0.417,-3.867 0.645,-7.789 0.645,-11.767 0,-5.265 -0.395,-10.436 -1.12,-15.5 h -86.788 c -6.723,0.001 -13.844,6.001 -15.873,13.378 z"
   id="path14"
   style="fill:url(#SVGID_1_)" />
</g>








</svg>
