<?xml version="1.0" encoding="UTF-8" standalone="no"?>
<!-- Generator: Adobe Illustrator 17.0.0, SVG Export Plug-In . SVG Version: 6.00 Build 0)  -->

<svg
   version="1.1"
   id="Warstwa_1"
   x="0px"
   y="0px"
   width="129.99977"
   height="35.272999"
   viewBox="0 0 129.99977 35.272998"
   enable-background="new 0 0 800 217.065"
   xml:space="preserve"
   sodipodi:docname="cryptomines.svg"
   inkscape:version="1.2.1 (9c6d41e410, 2022-07-14)"
   xmlns:inkscape="http://www.inkscape.org/namespaces/inkscape"
   xmlns:sodipodi="http://sodipodi.sourceforge.net/DTD/sodipodi-0.dtd"
   xmlns="http://www.w3.org/2000/svg"
   xmlns:svg="http://www.w3.org/2000/svg"><defs
   id="defs42" /><sodipodi:namedview
   id="namedview40"
   pagecolor="#ffffff"
   bordercolor="#000000"
   borderopacity="0.25"
   inkscape:showpageshadow="2"
   inkscape:pageopacity="0.0"
   inkscape:pagecheckerboard="0"
   inkscape:deskcolor="#d1d1d1"
   showgrid="false"
   inkscape:zoom="1.54875"
   inkscape:cx="400.32284"
   inkscape:cy="108.47458"
   inkscape:window-width="1920"
   inkscape:window-height="1017"
   inkscape:window-x="-8"
   inkscape:window-y="-8"
   inkscape:window-maximized="1"
   inkscape:current-layer="Warstwa_1" />
<g
   id="g9"
   transform="scale(0.16110668,0.16116221)">
	<linearGradient
   id="SVGID_1_"
   gradientUnits="userSpaceOnUse"
   x1="-8.4727573e-05"
   y1="108.5326"
   x2="217.0649"
   y2="108.5326">
		<stop
   offset="0"
   style="stop-color:#00BBAF"
   id="stop2" />
		<stop
   offset="1"
   style="stop-color:#00EDA5"
   id="stop4" />
	</linearGradient>
	<path
   fill="url(#SVGID_1_)"
   d="m 113.283,106.41 -18.37,67.261 H 51.818 L 71.949,99.957 C 81.15,66.512 104.748,48.881 130.755,48.881 h 68.436 C 179.778,19.441 146.433,0 108.532,0 48.592,0 0,48.592 0,108.532 c 0,59.94 48.592,108.533 108.532,108.533 44.27,0 82.323,-26.52 99.208,-64.527 h -87.719 l 8.753,-32.239 h 87.645 c 0.417,-3.867 0.645,-7.789 0.645,-11.767 0,-5.265 -0.395,-10.436 -1.12,-15.5 h -86.788 c -6.723,0.001 -13.844,6.001 -15.873,13.378 z"
   id="path7"
   style="fill:url(#SVGID_1_)" />
</g>
<path
   fill="#353d61"
   d="m 51.917112,24.338717 c -0.06605,0.04641 -0.206055,0.06914 -0.419844,0.06914 h -2.272893 c -0.171901,0 -0.291603,-0.02981 -0.35959,-0.0888 -0.06799,-0.05898 -0.08764,-0.167608 -0.05913,-0.325708 l 1.768629,-9.768042 c 0.08571,-0.473495 0.23586,-0.927327 0.450293,-1.361498 0.214433,-0.434171 0.506036,-0.822089 0.875776,-1.164236 0.369096,-0.342148 0.822127,-0.615156 1.359579,-0.818865 0.537452,-0.203709 1.177207,-0.305886 1.921036,-0.305886 h 6.26109 c 0.185917,0 0.298047,0.03304 0.336229,0.09831 0.03818,0.06608 0.04028,0.191138 0.0069,0.375185 l -0.303686,1.677699 c -0.03093,0.170832 -0.08345,0.285579 -0.159013,0.345371 -0.07475,0.05898 -0.191072,0.08816 -0.348473,0.08816 h -5.553509 c -0.557107,0 -0.949885,0.115554 -1.177529,0.346016 -0.227482,0.229817 -0.373123,0.522487 -0.437565,0.87785 l -0.328658,1.815492 h 6.089672 c 0.171256,0 0.276297,0.02982 0.315769,0.0888 0.03947,0.05898 0.04156,0.18727 0.0058,0.384694 l -0.310935,1.717183 c -0.02868,0.1581 -0.07878,0.273654 -0.148057,0.345049 -0.07089,0.07236 -0.184629,0.108623 -0.341386,0.108623 h -6.089671 l -0.932486,5.150422 c -0.03367,0.184531 -0.08361,0.299278 -0.148379,0.345048 z"
   id="path11"
   style="stroke-width:0.161134" />
<path
   fill="#353d61"
   d="m 63.233085,24.092461 c -0.469465,-0.2108 -0.823094,-0.486871 -1.06121,-0.829018 -0.238116,-0.342147 -0.37554,-0.729904 -0.411144,-1.164236 -0.03625,-0.434171 -0.01353,-0.874627 0.0675,-1.322175 l 1.772174,-9.787703 c 0.02868,-0.1581 0.08764,-0.266562 0.177056,-0.325709 0.08941,-0.05963 0.21975,-0.0888 0.391811,-0.0888 h 2.272894 c 0.213788,0 0.348634,0.02659 0.403894,0.07865 0.05461,0.0527 0.06654,0.16503 0.03561,0.335862 l -1.708053,9.43363 c -0.09054,0.500247 -0.01933,0.835304 0.214433,1.006136 0.23296,0.171315 0.564678,0.256409 0.993544,0.256409 h 5.446373 c 0.156757,0 0.259704,0.02353 0.309164,0.06914 0.04801,0.04641 0.05655,0.161163 0.0232,0.345371 l -0.342835,1.893495 c -0.04994,0.276071 -0.211533,0.414509 -0.482353,0.414509 h -6.196969 c -0.801022,-1.61e-4 -1.436105,-0.1054 -1.905086,-0.315556 z"
   id="path13"
   style="stroke-width:0.161134" />
<path
   fill="#353d61"
   d="m 100.77014,13.287019 h -3.880903 l -1.936824,10.696497 c -0.03109,0.171315 -0.08361,0.283162 -0.15724,0.335862 -0.07427,0.0527 -0.217978,0.07865 -0.432411,0.07865 h -2.294481 c -0.171256,0 -0.291603,-0.02981 -0.358946,-0.0888 -0.06799,-0.05899 -0.08764,-0.167609 -0.05913,-0.325709 L 93.58703,13.287022 h -3.79519 c -0.272271,0 -0.383757,-0.130703 -0.336069,-0.394203 L 89.79861,10.99916 c 0.03093,-0.170832 0.0791,-0.283162 0.146446,-0.335862 0.06589,-0.05206 0.178023,-0.07865 0.335907,-0.07865 h 10.978297 c 0.17125,0 0.28064,0.02659 0.32898,0.07865 0.0469,0.0527 0.0557,0.16503 0.0248,0.335862 l -0.34284,1.893656 c -0.0475,0.263339 -0.21459,0.394203 -0.50007,0.394203 z"
   id="path15"
   style="stroke-width:0.161134" />
<path
   fill="#353d61"
   d="m 111.51644,24.299394 c -0.0703,0.07236 -0.19092,0.108623 -0.36298,0.108623 h -6.3468 c -0.80086,0 -1.43594,-0.1054 -1.90492,-0.315556 -0.46947,-0.2108 -0.8231,-0.486871 -1.06121,-0.829018 -0.23828,-0.342147 -0.37554,-0.729904 -0.41115,-1.164236 -0.0362,-0.434171 -0.0135,-0.874627 0.0675,-1.322175 l 1.18623,-6.551727 c 0.0857,-0.473495 0.23956,-0.927327 0.46108,-1.361498 0.22137,-0.434171 0.51683,-0.822089 0.88657,-1.164236 0.3691,-0.342148 0.82213,-0.615156 1.35958,-0.818865 0.53697,-0.203709 1.17028,-0.305886 1.89945,-0.305886 h 6.15379 c 0.1719,0 0.27646,0.03304 0.31464,0.09831 0.0382,0.06608 0.0403,0.191138 0.007,0.375185 l -0.32866,1.815009 c -0.0309,0.170832 -0.0802,0.28558 -0.14821,0.345371 -0.0678,0.05898 -0.18028,0.08816 -0.33768,0.08816 h -5.44638 c -0.5571,0 -0.95052,0.118777 -1.1793,0.355524 -0.22877,0.236748 -0.37376,0.526195 -0.43579,0.868342 l -0.25036,1.382289 h 6.15379 c 0.17126,0 0.27646,0.03304 0.31464,0.09831 0.0382,0.06608 0.0403,0.191138 0.007,0.375185 l -0.27871,1.53926 c -0.0287,0.158101 -0.0741,0.273009 -0.13743,0.345371 -0.0633,0.07236 -0.18076,0.108623 -0.35218,0.108623 h -6.15379 l -0.39084,2.158285 c -0.0835,0.460763 -0.0219,0.773095 0.18366,0.93748 0.20621,0.164386 0.53793,0.246256 0.99548,0.246256 h 5.6608 c 0.18592,0 0.29853,0.02981 0.338,0.0888 0.0395,0.05898 0.0409,0.187915 0.005,0.384694 l -0.32028,1.768594 c -0.028,0.158261 -0.0773,0.27317 -0.14757,0.345532 z"
   id="path17"
   style="stroke-width:0.161134" />
<g
   id="g21"
   transform="scale(0.16110668,0.16116221)">
	<path
   fill="#353d61"
   d="m 508.745,64.608 c -24.259,0 -47.487,19.666 -51.881,43.925 -4.394,24.259 11.71,43.925 35.969,43.925 24.259,0 47.487,-19.666 51.881,-43.925 4.394,-24.26 -11.71,-43.925 -35.969,-43.925 z m -12.837,69.021 c -13.86,0 -23.061,-11.236 -20.551,-25.096 2.51,-13.86 15.781,-25.096 29.642,-25.096 13.86,0 23.061,11.236 20.55,25.096 -2.51,13.86 -15.781,25.096 -29.641,25.096 z"
   id="path19" />
</g>
<g
   id="g27"
   transform="scale(0.16110668,0.16116221)">
	<g
   id="g25">
		<path
   fill="#353d61"
   d="m 512.035,108.533 c -1.583,8.738 -7.447,16.426 -15.035,20.92 11.08,-0.743 21.422,-9.791 23.438,-20.921 2.016,-11.128 -5.049,-20.176 -15.859,-20.919 5.959,4.494 9.038,12.181 7.456,20.92 z"
   id="path23" />
	</g>
</g>
<g
   id="g31"
   transform="scale(0.16110668,0.16116221)">
	<path
   fill="#353d61"
   d="m 763.779,64.608 c -24.259,0 -47.487,19.666 -51.881,43.925 -4.394,24.259 11.71,43.925 35.969,43.925 24.259,0 47.487,-19.666 51.881,-43.925 4.394,-24.26 -11.71,-43.925 -35.969,-43.925 z m -12.838,69.021 c -13.86,0 -23.061,-11.236 -20.551,-25.096 2.51,-13.86 15.781,-25.096 29.642,-25.096 13.86,0 23.061,11.236 20.55,25.096 -2.509,13.86 -15.78,25.096 -29.641,25.096 z"
   id="path29" />
</g>
<g
   id="g37"
   transform="scale(0.16110668,0.16116221)">
	<g
   id="g35">
		<path
   fill="#353d61"
   d="m 767.069,108.533 c -1.583,8.738 -7.447,16.426 -15.035,20.92 11.08,-0.743 21.422,-9.791 23.438,-20.921 2.016,-11.128 -5.049,-20.176 -15.859,-20.919 5.959,4.494 9.038,12.181 7.456,20.92 z"
   id="path33" />
	</g>
</g>
</svg>
